<svg xmlns="http://www.w3.org/2000/svg" xmlns:xlink="http://www.w3.org/1999/xlink" width="500" zoomAndPan="magnify" viewBox="0 0 375 374.999991" height="500" preserveAspectRatio="xMidYMid meet" version="1.0"><defs><clipPath id="66978fa99d"><path d="M 124.5 150.273438 L 274.5 150.273438 L 274.5 240.273438 L 124.5 240.273438 Z M 124.5 150.273438 " clip-rule="nonzero"/></clipPath></defs><g clip-path="url(#66978fa99d)"><path fill="#28343e" d="M 127.992188 151.566406 C 129.210938 150.757812 130.675781 150.285156 132.246094 150.285156 L 266.753906 150.285156 C 268.515625 150.285156 270.140625 150.878906 271.441406 151.875 L 199.542969 190.894531 Z M 273.550781 236.234375 C 274.140625 235.144531 274.472656 233.898438 274.472656 232.570312 L 274.472656 158.953125 L 230.117188 182.601562 Z M 124.527344 158.421875 L 124.527344 232.570312 C 124.527344 233.253906 124.617188 233.914062 124.78125 234.542969 L 168.964844 182.605469 Z M 223.203125 186.480469 L 201.433594 198.6875 C 200.847656 199.015625 200.195312 199.179688 199.542969 199.179688 C 198.894531 199.179688 198.242188 199.015625 197.65625 198.6875 L 175.882812 186.484375 L 130.25 240.027344 C 130.886719 240.199219 131.558594 240.289062 132.246094 240.289062 L 266.753906 240.289062 C 266.804688 240.289062 266.851562 240.289062 266.902344 240.289062 Z M 223.203125 186.480469 " fill-opacity="1" fill-rule="nonzero"/></g></svg>