<svg xmlns="http://www.w3.org/2000/svg" xmlns:xlink="http://www.w3.org/1999/xlink" width="500" zoomAndPan="magnify" viewBox="0 0 375 374.999991" height="500" preserveAspectRatio="xMidYMid meet" version="1.0"><defs><clipPath id="a0a01ea1d1"><path d="M 152.078125 112.5 L 222.578125 112.5 L 222.578125 262.5 L 152.078125 262.5 Z M 152.078125 112.5 " clip-rule="nonzero"/></clipPath></defs><g clip-path="url(#a0a01ea1d1)"><path fill="#28343e" d="M 206.578125 137.402344 L 222.917969 137.402344 L 222.917969 112.761719 L 202.050781 112.761719 L 202.050781 112.855469 C 174.613281 113.863281 168.957031 129.230469 168.484375 145.480469 L 168.421875 145.480469 L 168.421875 162.578125 L 152.078125 162.578125 L 152.078125 187.25 L 168.421875 187.25 L 168.421875 262.238281 L 197.746094 262.238281 L 197.746094 187.25 L 218.769531 187.25 L 222.917969 162.578125 L 197.746094 162.578125 L 197.746094 147.273438 C 197.746094 141.835938 201.390625 137.402344 206.578125 137.402344 Z M 206.578125 137.402344 " fill-opacity="1" fill-rule="nonzero"/></g></svg>