<svg xmlns="http://www.w3.org/2000/svg" xmlns:xlink="http://www.w3.org/1999/xlink" width="500" zoomAndPan="magnify" viewBox="0 0 375 374.999991" height="500" preserveAspectRatio="xMidYMid meet" version="1.0"><defs><clipPath id="69ea07ad00"><path d="M 112.5 136.25 L 262.5 136.25 L 262.5 239 L 112.5 239 Z M 112.5 136.25 " clip-rule="nonzero"/></clipPath></defs><g clip-path="url(#69ea07ad00)"><path fill="#28343e" d="M 256.121094 146.113281 C 252.058594 138.921875 247.648438 137.601562 238.671875 137.097656 C 229.707031 136.492188 207.15625 136.238281 187.625 136.238281 C 168.054688 136.238281 145.496094 136.488281 136.539062 137.085938 C 127.582031 137.601562 123.054688 138.914062 118.957031 146.113281 C 114.773438 153.296875 112.511719 165.671875 112.511719 187.453125 L 112.511719 187.527344 C 112.511719 209.214844 114.773438 221.683594 118.957031 228.789062 C 123.054688 235.984375 127.515625 237.289062 136.476562 237.894531 C 145.441406 238.414062 168.027344 238.722656 187.597656 238.722656 C 207.128906 238.722656 229.691406 238.414062 238.667969 237.902344 C 247.644531 237.296875 252.058594 235.992188 256.121094 228.800781 C 260.34375 221.691406 262.488281 209.226562 262.488281 187.535156 L 262.488281 187.460938 C 262.488281 165.671875 260.351562 153.296875 256.121094 146.113281 Z M 168.753906 215.433594 L 168.753906 159.53125 L 215.550781 187.480469 Z M 168.753906 215.433594 " fill-opacity="1" fill-rule="nonzero"/></g></svg>